# xmcd
#
# Track frame offsets:
#	150
#	12002
#	27339
#	44110
#	62853
#	77088
#	99090
#	114774
#	134628
#	152533
#	166283
#	189635
#
# Disc length: 2709 seconds
#
# Revision: 1
# Processed by: cddbd v1.5.2PL0 Copyright (c) Steve Scherf et al.
# Submitted via: audiograbber 1.83.01
#
DISCID=930a930c
DTITLE=The Steeldrivers - Live 11/08/2006
DYEAR=2006
DGENRE=Bluegrass
TTITLE0=East Kentucky Home
TTITLE1=Through the Window Pane
TTITLE2=To Be With You Again
TTITLE3=Higher Than the Wall
TTITLE4=That Train Don't Stop Here Anymore
TTITLE5=If It Hadn't Been For Love
TTITLE6=Midnight Train to Memphis
TTITLE7=Peacemaker
TTITLE8=Heaven Sent
TTITLE9=Drinkin' Dark Whiskey
TTITLE10=You Put the Hurt On Me
TTITLE11=Whiplash
EXTD=
EXTT0=
EXTT1=
EXTT2=
EXTT3=
EXTT4=
EXTT5=
EXTT6=
EXTT7=
EXTT8=
EXTT9=
EXTT10=
EXTT11=
PLAYORDER=
